HIERARCHY
ROOT Hips
{
	OFFSET -3.958830 18.904000 13.208200
	CHANNELS 6 Xposition Yposition Zposition Zrotation Yrotation Xrotation 
	JOINT LHipJoint
	{
		OFFSET 0.000000 0.000000 0.000000
		CHANNELS 3 Zrotation Yrotation Xrotation
		JOINT LeftUpLeg
		{
			OFFSET 1.800000 -1.400000 0.085000
			CHANNELS 3 Zrotation Yrotation Xrotation
			JOINT LeftLeg
			{
				OFFSET 2.215000 -6.000000 0.000000
				CHANNELS 3 Zrotation Yrotation Xrotation
				JOINT LeftFoot
				{
					OFFSET 2.500000 -6.900000 0.000000
					CHANNELS 3 Zrotation Yrotation Xrotation
					JOINT LeftToeBase
					{
						OFFSET 0.200000 -0.500000 1.950000
						CHANNELS 3 Zrotation Yrotation Xrotation
						End Site
						{
							OFFSET 0.000000 0.000000 0.000000
						}
					}
				}
			}
		}
	}
	JOINT RHipJoint
	{
		OFFSET 0.000000 0.000000 0.000000
		CHANNELS 3 Zrotation Yrotation Xrotation
		JOINT RightUpLeg
		{
			OFFSET -1.800000 -1.400000 0.085000
			CHANNELS 3 Zrotation Yrotation Xrotation
			JOINT RightLeg
			{
				OFFSET -2.215000 -6.000000 0.000000
				CHANNELS 3 Zrotation Yrotation Xrotation
				JOINT RightFoot
				{
					OFFSET -2.500000 -6.900000 0.000000
					CHANNELS 3 Zrotation Yrotation Xrotation
					JOINT RightToeBase
					{
						OFFSET -0.200000 -0.500000 1.950000
						CHANNELS 3 Zrotation Yrotation Xrotation
						End Site
						{
							OFFSET 0.000000 0.000000 0.000000
						}
					}
				}
			}
		}
	}
	JOINT LowerBack
	{
		OFFSET 0.000000 0.000000 0.000000
		CHANNELS 3 Zrotation Yrotation Xrotation
		JOINT Spine
		{
			OFFSET -0.087000 1.940000 -0.288900
			CHANNELS 3 Zrotation Yrotation Xrotation
			JOINT Spine1
			{
				OFFSET 0.000000 1.950000 0.060000
				CHANNELS 3 Zrotation Yrotation Xrotation
				JOINT Neck
				{
					OFFSET 0.000000 0.000000 0.000000
					CHANNELS 3 Zrotation Yrotation Xrotation
					JOINT Neck1
					{
						OFFSET 0.000000 1.600000 0.340000
						CHANNELS 3 Zrotation Yrotation Xrotation
						JOINT Head
						{
							OFFSET 0.000000 1.667000 -0.240000
							CHANNELS 3 Zrotation Yrotation Xrotation
							End Site
							{
								OFFSET 0.000000 0.000000 0.000000
							}
						}
					}
				}
				JOINT LeftShoulder
				{
					OFFSET 0.000000 0.000000 0.000000
					CHANNELS 3 Zrotation Yrotation Xrotation
					JOINT LeftArm
					{
						OFFSET 2.700000 1.550000 -0.730000
						CHANNELS 3 Zrotation Yrotation Xrotation
						JOINT LeftForeArm
						{
							OFFSET 5.450000 0.000000 0.000000
							CHANNELS 3 Zrotation Yrotation Xrotation
							JOINT LeftHand
							{
								OFFSET 3.450000 0.000000 0.000000
								CHANNELS 3 Zrotation Yrotation Xrotation
								JOINT LeftHandIndex1
								{
									OFFSET 0.750000 0.000000 0.000000
									CHANNELS 3 Zrotation Yrotation Xrotation
									End Site
									{
										OFFSET 0.000000 0.000000 0.000000
									}
								}
							}
						}
					}
				}
				JOINT RightShoulder
				{
					OFFSET 0.000000 0.000000 0.000000
					CHANNELS 3 Zrotation Yrotation Xrotation
					JOINT RightArm
					{
						OFFSET -2.700000 1.550000 -0.730000
						CHANNELS 3 Zrotation Yrotation Xrotation
						JOINT RightForeArm
						{
							OFFSET -5.450000 0.000000 0.000000
							CHANNELS 3 Zrotation Yrotation Xrotation
							JOINT RightHand
							{
								OFFSET -3.450000 0.000000 0.000000
								CHANNELS 3 Zrotation Yrotation Xrotation
								JOINT RightHandIndex1
								{
									OFFSET -0.750000 0.000000 0.000000
									CHANNELS 3 Zrotation Yrotation Xrotation
									End Site
									{
										OFFSET 0.000000 0.000000 0.000000
									}
								}
							}
						}
					}
				}
			}
		}
	}
}
MOTION
Frames: 11
Frame Time: 0.016667
-0.541160 16.936580 -0.971640 -6.146374 -3.612556 2.593941 -14.958846 13.833363 3.396504 22.177543 -0.033354 -8.531604 -7.408067 6.394606 7.162462 0.427365 4.524846 2.813096 0.187410 0.231650 0.313740 18.150697 -10.883251 2.915270 -8.130335 -0.448075 -5.264397 5.230109 -3.791791 5.832793 -0.149950 -3.315001 3.137363 0.051640 -0.149750 -0.037430 -3.613830 -2.464120 -8.416724 14.999802 -2.586347 16.307438 -6.948817 1.251134 -8.232295 2.385854 -3.961413 -15.184377 -9.823595 6.147236 44.072465 3.261830 3.038270 2.385840 1.882139 -1.974177 4.437013 -13.146819 1.495727 -1.175381 13.208947 -11.750312 -0.076522 -3.679813 3.051866 -0.012500 -0.119160 0.111740 -0.063290 -6.709314 9.191879 10.535147 16.550705 5.411326 0.642446 -11.538548 -2.561488 0.317559 3.379213 -1.284779 0.084220 -0.157940 -0.247270 0.058150 
-0.520300 16.927760 -0.894100 -6.249180 -3.264710 6.771033 -14.931032 13.707701 3.565520 21.105852 -0.687137 -10.502497 -7.232925 5.594399 4.255758 0.409400 4.200240 2.941881 0.143100 0.172840 0.280540 18.168943 -10.766825 2.996247 -7.755717 0.172553 -8.264817 5.657265 -3.355106 4.260894 -0.063707 -3.036248 3.242615 0.017340 -0.114360 -0.035160 -3.690059 -2.459981 -8.575792 15.437229 -1.710663 10.940890 -6.716663 1.251528 -13.002331 2.302416 -3.751759 -14.461053 -9.611954 6.180070 45.641519 3.052500 3.042850 5.122580 1.882267 0.354425 3.602291 -12.933914 2.235011 -1.108572 10.610280 -11.947154 0.284581 -3.711055 3.043259 -0.041170 -0.088580 0.079360 -0.058830 -6.680770 6.766162 9.522058 16.734438 5.168446 0.649653 -10.538740 -2.047636 0.320776 3.390714 -1.266448 0.075630 -0.172460 -0.236090 0.067870 
-0.498640 16.917490 -0.847020 -6.215211 -2.820019 9.424384 -14.909963 13.560182 3.652728 20.214000 -1.181461 -11.495541 -6.851656 4.952920 1.959151 0.411407 3.996533 3.041578 0.101670 0.117790 0.245140 18.201199 -10.676156 3.052502 -7.735844 0.559399 -9.993968 5.970305 -3.079968 2.964138 -0.012906 -2.919198 3.296780 -0.014410 -0.074980 -0.029700 -3.779411 -2.377036 -8.636034 15.513032 -1.096849 7.134668 -6.571174 1.176224 -15.421622 2.264263 -3.560419 -13.964342 -9.244659 6.013276 45.795941 2.829260 2.997840 7.177220 1.863853 1.792458 3.133198 -12.634445 3.006923 -1.206700 9.220666 -11.360658 0.462888 -3.747597 3.043641 -0.070300 -0.056440 0.045760 -0.050270 -6.708439 5.100467 8.911516 16.774802 4.498943 0.477972 -9.777631 -1.897969 0.309606 3.399733 -1.262663 0.067410 -0.183960 -0.224890 0.079050 
-0.475980 16.907160 -0.818410 -6.244007 -2.429162 11.120039 -14.908219 13.421658 3.706522 19.625292 -1.520938 -11.885966 -6.473260 4.480761 0.092492 0.429179 3.889633 3.102958 0.063420 0.070380 0.214300 18.226291 -10.584063 3.084859 -7.774324 0.791418 -10.918387 6.208712 -2.891598 1.877157 0.018019 -2.877950 3.321395 -0.042580 -0.049090 -0.027800 -3.830702 -2.312618 -8.648532 15.425294 -0.641630 4.439667 -6.247857 1.166747 -16.665501 2.311367 -3.481573 -13.649276 -9.084361 5.797043 45.407117 2.490960 2.953970 8.676310 1.613302 2.689950 2.880679 -12.539126 3.845728 -1.380166 9.020971 -10.373353 0.532013 -3.782532 3.044692 -0.096320 -0.033660 0.018020 -0.048250 -6.591871 4.053772 8.596123 16.456089 3.503995 0.201764 -9.300090 -1.959842 0.304644 3.413635 -1.262887 0.062040 -0.197940 -0.214170 0.087570 
-0.450720 16.894860 -0.801860 -6.236094 -2.069584 12.166518 -14.905907 13.281604 3.727844 19.125559 -1.749607 -11.865048 -6.140786 4.123623 -1.451974 0.459698 3.832999 3.145851 0.027760 0.032200 0.184830 18.255326 -10.514638 3.107734 -8.005693 0.914813 -11.323080 6.502278 -2.778816 0.916217 0.032367 -2.899115 3.319572 -0.067460 -0.025550 -0.025030 -3.886540 -2.201750 -8.625415 15.290195 -0.320637 2.440351 -6.083920 1.109992 -17.174340 2.316706 -3.351537 -13.413742 -8.733485 5.561696 44.799985 2.327960 2.902600 9.860900 1.227346 3.137329 2.791134 -12.355644 4.707256 -1.551908 9.107207 -9.143149 0.566898 -3.819503 3.044261 -0.125080 -0.014120 -0.004600 -0.048030 -6.290180 3.378525 8.415146 16.215829 2.618951 0.000171 -9.011930 -2.461590 0.336592 3.437635 -1.266770 0.061670 -0.211040 -0.204170 0.099900 
-0.424590 16.883670 -0.793320 -6.224281 -1.753442 12.817092 -14.910158 13.155375 3.742283 18.757496 -1.903292 -11.662367 -5.916210 3.862633 -2.745380 0.492299 3.822281 3.170562 -0.005120 -0.005000 0.158480 18.277630 -10.449252 3.122262 -8.307897 0.982014 -11.446664 6.827762 -2.715746 0.096211 0.038894 -2.949281 3.307925 -0.091410 -0.004810 -0.019730 -3.922008 -2.108762 -8.595329 15.123715 -0.079260 0.939574 -5.947598 1.064855 -17.296102 2.363234 -3.246901 -13.295690 -8.455901 5.320284 44.205655 2.108260 2.844730 10.885730 0.713562 3.283178 2.813203 -12.218624 5.613534 -1.699931 9.391659 -7.879361 0.590848 -3.855481 3.041028 -0.148320 0.004170 -0.023750 -0.048580 -5.907993 3.035786 8.381451 15.979559 1.627363 -0.202101 -8.962726 -3.018360 0.394448 3.458903 -1.272999 0.061220 -0.223950 -0.193920 0.109840 
-0.398950 16.873730 -0.790070 -6.235139 -1.519438 13.147613 -14.917970 13.045424 3.751789 18.511718 -1.993191 -11.300551 -5.759587 3.674078 -3.823356 0.520368 3.844748 3.182678 -0.027640 -0.034530 0.137650 18.295042 -10.392711 3.129603 -8.592366 1.004934 -11.347722 7.113028 -2.686774 -0.581126 0.035411 -3.013746 3.294415 -0.111420 0.012800 -0.012670 -3.943320 -2.027771 -8.561839 14.964064 0.134398 -0.203094 -5.790205 1.056318 -17.056741 2.433524 -3.184856 -13.292025 -8.291798 5.098412 43.742624 1.870340 2.759570 11.620700 0.034224 3.113776 2.946421 -12.134704 6.575815 -1.804398 9.781152 -6.535789 0.612193 -3.886833 3.035052 -0.160430 0.018910 -0.038050 -0.045390 -5.380758 3.054513 8.475674 15.592506 0.659494 -0.348790 -8.868317 -3.913968 0.487125 3.476349 -1.276122 0.060560 -0.232380 -0.185050 0.115850 
-0.373860 16.867770 -0.789950 -6.274116 -1.314766 13.316103 -14.925056 12.957855 3.766078 18.350695 -2.049170 -10.938020 -5.651221 3.536475 -4.718230 0.541176 3.874452 3.184592 -0.044710 -0.055630 0.124350 18.308416 -10.344602 3.134484 -8.803387 1.009336 -11.173833 7.289676 -2.659723 -1.136903 0.030671 -3.065888 3.283970 -0.125470 0.020410 -0.012370 -3.958607 -1.970890 -8.541354 14.877342 0.301825 -1.061581 -5.705372 1.063808 -16.884182 2.510932 -3.120282 -13.319416 -8.150506 4.937252 43.593091 1.694480 2.705580 12.077180 -0.679769 2.883592 3.077002 -11.991202 7.411503 -1.836558 10.422887 -5.267951 0.665898 -3.911103 3.023866 -0.165180 0.026290 -0.047380 -0.047880 -4.834470 3.171731 8.569022 15.251614 -0.068182 -0.423991 -8.755664 -5.073556 0.614584 3.496807 -1.271478 0.058150 -0.236870 -0.176950 0.116670 
-0.351100 16.864950 -0.793230 -6.228372 -1.138596 13.391904 -14.931465 12.894950 3.773089 18.111833 -2.087168 -10.636818 -5.536196 3.424774 -5.398455 0.557338 3.885863 3.190705 -0.061030 -0.072840 0.112590 18.315164 -10.322272 3.135376 -9.052516 1.012453 -11.071323 7.362660 -2.645399 -1.468761 0.029269 -3.102196 3.277044 -0.136870 0.026350 -0.015440 -3.963207 -1.909463 -8.523127 14.643637 0.425886 -1.691667 -5.623930 1.059130 -16.776893 2.558931 -3.035694 -13.351528 -7.971986 4.797405 43.490302 1.607670 2.659900 12.442810 -1.239376 2.677742 3.196537 -11.880381 8.059046 -1.844544 10.909584 -4.083038 0.735213 -3.930700 3.011718 -0.169740 0.030960 -0.054180 -0.050590 -4.368573 3.248836 8.642640 15.099487 -0.733132 -0.501021 -8.814746 -5.783907 0.716761 3.510470 -1.268377 0.054930 -0.237880 -0.170370 0.118210 
-0.329060 16.864190 -0.798840 -6.112167 -0.977757 13.374329 -14.935164 12.851333 3.771491 17.829454 -2.103415 -10.403636 -5.488871 3.349043 -5.842346 0.570638 3.885765 3.199781 -0.071610 -0.084680 0.106090 18.318685 -10.316583 3.138011 -9.368702 1.011568 -10.975260 7.429952 -2.648303 -1.682296 0.026098 -3.137611 3.269375 -0.145920 0.030630 -0.016430 -3.965817 -1.847982 -8.507987 14.363305 0.468754 -2.155150 -5.610451 0.993802 -16.657656 2.594796 -2.949055 -13.407597 -7.769107 4.712460 43.467708 1.553440 2.674270 12.772590 -1.687637 2.456114 3.347340 -11.806740 8.742590 -1.838714 11.518220 -3.088911 0.827087 -3.946081 3.004374 -0.173410 0.034830 -0.057680 -0.051090 -4.003771 3.357806 8.698703 15.047391 -1.095534 -0.522795 -8.855201 -6.493025 0.817193 3.524653 -1.267349 0.053910 -0.239430 -0.168190 0.119790 
-0.310320 16.864790 -0.805300 -5.973475 -0.924388 13.310122 -14.938363 12.821594 3.767645 17.543291 -2.104490 -10.166088 -5.452304 3.292548 -6.159341 0.580596 3.879739 3.208165 -0.077910 -0.093370 0.105070 18.318272 -10.329908 3.135937 -9.663274 1.012782 -10.950523 7.408792 -2.660465 -1.723360 0.024283 -3.156441 3.264616 -0.154050 0.029940 -0.017190 -3.960927 -1.775072 -8.494259 13.979433 0.511832 -2.514302 -5.546698 0.950522 -16.561989 2.610590 -2.826299 -13.472684 -7.502074 4.623861 43.562254 1.535880 2.694000 13.026670 -2.067819 2.234296 3.504750 -11.723743 9.407738 -1.823231 12.162604 -2.281045 0.928524 -3.955336 3.001166 -0.173640 0.034970 -0.058110 -0.053020 -3.661149 3.442442 8.739727 15.105639 -1.404891 -0.557574 -9.159875 -6.893701 0.913713 3.533360 -1.271044 0.054410 -0.242370 -0.167550 0.119170 
